<mxfile host="app.diagrams.net" modified="2023-08-05T11:00:46.995Z" agent="Mozilla/5.0 (Macintosh; Intel Mac OS X 10_15_7) AppleWebKit/537.36 (KHTML, like Gecko) Chrome/114.0.0.0 Safari/537.36" etag="dGWz9EbJIi8E13vvIMNq" version="21.3.6" type="github">
  <diagram name="module" id="k0sGL_XcMHQXfFoxzXIn">
    <mxGraphModel dx="1122" dy="733" grid="0" gridSize="10" guides="1" tooltips="1" connect="1" arrows="1" fold="1" page="1" pageScale="1" pageWidth="1100" pageHeight="850" background="none" math="0" shadow="0">
      <root>
        <mxCell id="R0QUsbhFwETC7hPm6EKl-0" />
        <mxCell id="R0QUsbhFwETC7hPm6EKl-1" parent="R0QUsbhFwETC7hPm6EKl-0" />
        <mxCell id="R0QUsbhFwETC7hPm6EKl-2" value="module" style="verticalAlign=top;align=left;spacingTop=8;spacingLeft=2;spacingRight=12;shape=cube;size=10;direction=south;fontStyle=4;html=1;rounded=0;shadow=0;comic=0;labelBackgroundColor=none;strokeWidth=1;fontFamily=Verdana;fontSize=12" parent="R0QUsbhFwETC7hPm6EKl-1" vertex="1">
          <mxGeometry x="120" y="70" width="770" height="560" as="geometry" />
        </mxCell>
        <mxCell id="R0QUsbhFwETC7hPm6EKl-6" value="&lt;b&gt;application&lt;/b&gt;" style="shape=component;align=left;spacingLeft=36;rounded=0;shadow=0;comic=0;labelBackgroundColor=none;strokeWidth=1;fontFamily=Verdana;fontSize=12;html=1;" parent="R0QUsbhFwETC7hPm6EKl-1" vertex="1">
          <mxGeometry x="180" y="150" width="150" height="90" as="geometry" />
        </mxCell>
        <mxCell id="D6_40mLUFsc-lUqbzJtx-4" value="&lt;h1&gt;Assemble Modules&lt;/h1&gt;&lt;p&gt;&lt;/p&gt;&lt;ul&gt;&lt;li&gt;Configure IoC, DI&lt;/li&gt;&lt;li&gt;Running application&lt;/li&gt;&lt;/ul&gt;&lt;p&gt;&lt;/p&gt;" style="text;html=1;strokeColor=none;fillColor=none;spacing=5;spacingTop=-20;whiteSpace=wrap;overflow=hidden;rounded=0;" parent="R0QUsbhFwETC7hPm6EKl-1" vertex="1">
          <mxGeometry x="350" y="150" width="420" height="90" as="geometry" />
        </mxCell>
        <mxCell id="D6_40mLUFsc-lUqbzJtx-5" value="&lt;b&gt;domain&lt;/b&gt;" style="shape=component;align=left;spacingLeft=36;rounded=0;shadow=0;comic=0;labelBackgroundColor=none;strokeWidth=1;fontFamily=Verdana;fontSize=12;html=1;" parent="R0QUsbhFwETC7hPm6EKl-1" vertex="1">
          <mxGeometry x="180" y="260" width="150" height="90" as="geometry" />
        </mxCell>
        <mxCell id="D6_40mLUFsc-lUqbzJtx-6" value="&lt;h1&gt;Define Business&lt;/h1&gt;&lt;p&gt;&lt;/p&gt;&lt;ul&gt;&lt;li&gt;Domains with aggregate&lt;/li&gt;&lt;li&gt;Business logic&lt;/li&gt;&lt;/ul&gt;&lt;p&gt;&lt;/p&gt;" style="text;html=1;strokeColor=none;fillColor=none;spacing=5;spacingTop=-20;whiteSpace=wrap;overflow=hidden;rounded=0;" parent="R0QUsbhFwETC7hPm6EKl-1" vertex="1">
          <mxGeometry x="350" y="260" width="420" height="90" as="geometry" />
        </mxCell>
        <mxCell id="D6_40mLUFsc-lUqbzJtx-7" value="&lt;b&gt;presentation&lt;/b&gt;" style="shape=component;align=left;spacingLeft=36;rounded=0;shadow=0;comic=0;labelBackgroundColor=none;strokeWidth=1;fontFamily=Verdana;fontSize=12;html=1;" parent="R0QUsbhFwETC7hPm6EKl-1" vertex="1">
          <mxGeometry x="180" y="370" width="150" height="90" as="geometry" />
        </mxCell>
        <mxCell id="D6_40mLUFsc-lUqbzJtx-8" value="&lt;h1&gt;Communicate External&lt;/h1&gt;&lt;p&gt;&lt;/p&gt;&lt;ul&gt;&lt;li&gt;Define apis for communicate external side&lt;/li&gt;&lt;/ul&gt;&lt;p&gt;&lt;/p&gt;" style="text;html=1;strokeColor=none;fillColor=none;spacing=5;spacingTop=-20;whiteSpace=wrap;overflow=hidden;rounded=0;" parent="R0QUsbhFwETC7hPm6EKl-1" vertex="1">
          <mxGeometry x="350" y="370" width="420" height="90" as="geometry" />
        </mxCell>
        <mxCell id="D6_40mLUFsc-lUqbzJtx-9" value="&lt;b&gt;infrastructure&lt;/b&gt;" style="shape=component;align=left;spacingLeft=36;rounded=0;shadow=0;comic=0;labelBackgroundColor=none;strokeWidth=1;fontFamily=Verdana;fontSize=12;html=1;" parent="R0QUsbhFwETC7hPm6EKl-1" vertex="1">
          <mxGeometry x="180" y="480" width="150" height="90" as="geometry" />
        </mxCell>
        <mxCell id="D6_40mLUFsc-lUqbzJtx-10" value="&lt;h1&gt;Connect External&lt;/h1&gt;&lt;p&gt;&lt;/p&gt;&lt;ul&gt;&lt;li&gt;database server&lt;/li&gt;&lt;/ul&gt;&lt;p&gt;&lt;/p&gt;" style="text;html=1;strokeColor=none;fillColor=none;spacing=5;spacingTop=-20;whiteSpace=wrap;overflow=hidden;rounded=0;" parent="R0QUsbhFwETC7hPm6EKl-1" vertex="1">
          <mxGeometry x="350" y="480" width="420" height="90" as="geometry" />
        </mxCell>
      </root>
    </mxGraphModel>
  </diagram>
</mxfile>
